<svg xmlns="http://www.w3.org/2000/svg" width="27.197" height="27.236" viewBox="0 0 27.197 27.236">
  <path id="instagram" d="M16.593,30.241c-3.715,0-4.153-.02-5.6-.083a9.942,9.942,0,0,1-3.3-.68,6.975,6.975,0,0,1-3.972-3.973,9.953,9.953,0,0,1-.633-3.3C3,20.756,3,20.282,3,16.6c0-3.725.02-4.16.085-5.6a9.952,9.952,0,0,1,.633-3.3A6.961,6.961,0,0,1,7.7,3.721a9.866,9.866,0,0,1,3.3-.634C12.435,3,12.91,3,16.593,3c3.745,0,4.175.02,5.6.082a9.928,9.928,0,0,1,3.307.634A6.969,6.969,0,0,1,29.478,7.7a9.926,9.926,0,0,1,.636,3.348c.085,1.447.085,1.919.085,5.6s-.021,4.168-.085,5.6a9.97,9.97,0,0,1-.634,3.306A6.983,6.983,0,0,1,25.5,29.525a9.983,9.983,0,0,1-3.3.633C20.759,30.241,20.286,30.241,16.593,30.241ZM16.541,5.4c-3.694,0-4.077.018-5.519.083a7.534,7.534,0,0,0-2.52.47,4.514,4.514,0,0,0-2.6,2.585,7.573,7.573,0,0,0-.47,2.547c-.08,1.463-.08,1.847-.08,5.515,0,3.624.014,4.064.08,5.518a7.652,7.652,0,0,0,.47,2.522,4.517,4.517,0,0,0,2.6,2.584,7.431,7.431,0,0,0,2.52.47c1.462.085,1.847.085,5.519.085,3.7,0,4.088-.018,5.518-.085a7.493,7.493,0,0,0,2.522-.47,4.531,4.531,0,0,0,2.582-2.581,7.615,7.615,0,0,0,.47-2.549h.017c.065-1.444.065-1.829.065-5.518s-.017-4.077-.082-5.519a7.64,7.64,0,0,0-.47-2.519,4.531,4.531,0,0,0-2.582-2.585,7.466,7.466,0,0,0-2.522-.47C20.6,5.4,20.217,5.4,16.541,5.4Zm.051,18.175a6.981,6.981,0,1,1,6.977-6.983A6.981,6.981,0,0,1,16.593,23.571Zm0-11.516a4.53,4.53,0,1,0,4.53,4.53A4.53,4.53,0,0,0,16.593,12.055Zm7.248-1.077A1.63,1.63,0,1,1,25,10.5,1.628,1.628,0,0,1,23.841,10.978Z" transform="translate(-3.002 -3.005)" fill="#6fa5d1"/>
</svg>
