<svg xmlns="http://www.w3.org/2000/svg" width="12.426" height="12.426" viewBox="0 0 12.426 12.426">
  <path id="phone" d="M15.647,16.426A11.434,11.434,0,0,1,4,4.779.778.778,0,0,1,4.777,4h2.05a.778.778,0,0,1,.768.663A9.643,9.643,0,0,0,8.384,7.3l.08.172a.549.549,0,0,1-.179.678A1.5,1.5,0,0,0,7.9,10.229a9.178,9.178,0,0,0,2.3,2.3,1.5,1.5,0,0,0,2.078-.383.549.549,0,0,1,.678-.179l.171.079a9.644,9.644,0,0,0,2.638.789.777.777,0,0,1,.663.768v2.05a.777.777,0,0,1-.777.777Z" transform="translate(-4 -4)" fill="#fff"/>
</svg>
